<?xml version="1.0" encoding="UTF-8"?>
<svg width="16px" height="16px" viewBox="0 0 16 16" version="1.1" xmlns="http://www.w3.org/2000/svg" xmlns:xlink="http://www.w3.org/1999/xlink">
    <title>eye-fill</title>
    <g id="prompt" stroke="none" stroke-width="1" fill="none" fill-rule="evenodd">
        <g id="画板" transform="translate(-102.000000, -19.000000)" fill="#000000" fill-rule="nonzero">
            <g id="eye-fill" transform="translate(102.000000, 19.000000)">
                <rect id="矩形" opacity="0" x="0" y="0" width="16" height="16"></rect>
                <path d="M6.1875,8 C5.22100169,8 4.4375,8.78350169 4.4375,9.75 C4.4375,10.7164983 5.22100169,11.5 6.1875,11.5 C7.15399831,11.5 7.9375,10.7164983 7.9375,9.75 L6.1875,8 Z M14.721875,7.596875 C13.240625,4.4765625 11.0015625,2.90625 8,2.90625 C4.996875,2.90625 2.759375,4.4765625 1.278125,7.5984375 C1.1578125,7.8515625 1.1578125,8.1484375 1.278125,8.403125 C2.759375,11.5234375 4.9984375,13.09375 8,13.09375 C11.003125,13.09375 13.240625,11.5234375 14.721875,8.4015625 C14.8421875,8.1484375 14.8421875,7.8546875 14.721875,7.596875 Z M7.9375,10.75 C6.41875,10.75 5.1875,9.51875 5.1875,8 C5.1875,6.48125 6.41875,5.25 7.9375,5.25 C9.45625,5.25 10.6875,6.48125 10.6875,8 C10.6875,9.51875 9.45625,10.75 7.9375,10.75 Z" id="形状"></path>
            </g>
        </g>
    </g>
</svg>