<?xml version="1.0" encoding="UTF-8"?>
<svg width="16px" height="16px" viewBox="0 0 16 16" version="1.1" xmlns="http://www.w3.org/2000/svg" xmlns:xlink="http://www.w3.org/1999/xlink">
    <title>编组</title>
    <g id="prompt" stroke="none" stroke-width="1" fill="none" fill-rule="evenodd">
        <g id="画板" transform="translate(-206.000000, -19.000000)">
            <g id="编组" transform="translate(206.000000, 19.000000)">
                <circle id="椭圆形" fill="#5E5FD4" cx="8" cy="8" r="8"></circle>
                <g id="link" transform="translate(2.000000, 2.000000)" fill-rule="nonzero">
                    <rect id="矩形" fill="#000000" opacity="0" x="0" y="0" width="12" height="12"></rect>
                    <path d="M6.81796875,8.02382812 C6.77695313,7.9828125 6.71015625,7.9828125 6.66914063,8.02382812 L5.1375,9.55546875 C4.42851563,10.2644531 3.23085938,10.3394531 2.44804688,9.55546875 C1.6640625,8.77148438 1.7390625,7.575 2.44804688,6.86601562 L3.9796875,5.334375 C4.02070313,5.29335938 4.02070313,5.2265625 3.9796875,5.18554688 L3.4546875,4.66054688 C3.41367188,4.61953125 3.346875,4.61953125 3.30585938,4.66054688 L1.77421875,6.1921875 C0.65859375,7.3078125 0.65859375,9.1125 1.77421875,10.2257812 C2.88984375,11.3390625 4.69453125,11.3414062 5.8078125,10.2257812 L7.33945313,8.6953125 C7.38046875,8.65429687 7.38046875,8.5875 7.33945313,8.54648437 L6.81796875,8.02382812 L6.81796875,8.02382812 Z M10.2269531,1.77421875 C9.11132813,0.65859375 7.30664063,0.65859375 6.19335938,1.77421875 L4.659375,3.30585938 C4.61835938,3.346875 4.61835938,3.41367188 4.659375,3.4546875 L5.18320313,3.97851562 C5.22421875,4.01953125 5.29101563,4.01953125 5.33203125,3.97851562 L6.86367188,2.446875 C7.57265625,1.73789063 8.7703125,1.66289063 9.553125,2.446875 C10.3371094,3.23085938 10.2621094,4.42734375 9.553125,5.13632813 L8.02148438,6.66914063 C7.98046875,6.71015625 7.98046875,6.77695313 8.02148438,6.81796875 L8.54648438,7.34296875 C8.5875,7.38398438 8.65429688,7.38398438 8.6953125,7.34296875 L10.2269531,5.81132813 C11.3414063,4.69570313 11.3414063,2.88867188 10.2269531,1.77421875 L10.2269531,1.77421875 Z M7.29375,4.15898437 C7.25273438,4.11796875 7.1859375,4.11796875 7.14492188,4.15898437 L4.15898438,7.14492187 C4.11796875,7.1859375 4.11796875,7.25273438 4.15898438,7.29375 L4.68046875,7.81523438 C4.72148438,7.85625 4.78828125,7.85625 4.82929688,7.81523438 L7.8140625,4.83046875 C7.85507813,4.78945313 7.85507813,4.72265625 7.8140625,4.68164063 L7.29375,4.15898438 L7.29375,4.15898437 Z" id="形状" fill="#FFFFFF"></path>
                </g>
            </g>
        </g>
    </g>
</svg>