<?xml version="1.0" encoding="UTF-8"?>
<svg width="469px" height="366px" viewBox="0 0 469 366" version="1.1" xmlns="http://www.w3.org/2000/svg" xmlns:xlink="http://www.w3.org/1999/xlink">
    <title>undraw_firmware_re_fgdy</title>
    <g id="prompt" stroke="none" stroke-width="1" fill="none" fill-rule="evenodd">
        <g id="undraw_firmware_re_fgdy" fill-rule="nonzero">
            <path d="M389.457715,159 C389.457715,159 378.390238,164.916195 381.576025,171.652081 C384.761813,178.387966 430,172.876787 430,172.876787 C430,172.876787 426.814212,163.691489 421.079794,161.854429 C415.345376,160.01737 389.457715,159 389.457715,159 Z" id="路径" fill="#5E5FD4"></path>
            <path d="M386,159.462378 C388.239225,157.997836 390.728088,156.962225 393.341262,156.407692 C402.057584,154.281847 411.183063,154.56825 419.75079,157.236555 L419.593779,157.108059 C423.243827,159.046815 426.448432,161.73552 429,165 L386,159.462378 Z" id="路径" fill="#CCCCCC"></path>
            <path d="M434.759663,189.020059 C434.607639,191.31886 434.455614,193.615527 434.303589,195.910059 C434.095218,200.715996 433.57681,205.503064 432.751669,210.240746 C431.978877,214.204417 430.75001,218.136071 428.551985,221.510634 C426.35396,224.878794 423.091762,227.664249 419.227799,228.688784 C416.855472,229.26358 414.38889,229.318165 411.993953,228.848868 C407.47755,226.255513 404.418051,229.572446 408.92812,232.947009 C409.951235,233.711599 411.01488,234.419154 412.114306,235.066516 L414.160306,267 L376.154111,258.675651 L383.571654,216.195857 C382.4355,215.152365 381.396526,214.005622 380.467815,212.770067 C376.217455,207.064686 374.754217,199.630402 375.032929,192.497076 C375.317975,185.357345 377.199282,178.396909 379.06792,171.513312 C379.544365,169.645739 380.119506,167.805327 380.790867,166 C381.620669,166.345781 382.46314,166.659545 383.318279,166.922082 C388.784837,168.599758 394.59345,168.734229 400.307048,168.727825 C410.473705,168.721422 420.627693,168.320146 430.769013,167.523996 C433.099449,171.402513 434.514818,175.771548 434.905354,180.292267 C435.069049,183.201197 435.020354,186.118369 434.759663,189.020059 Z" id="路径" fill="#CCCCCC"></path>
            <path d="M272,275.728787 L330.374357,280.942773 L331,281 L331,30.3838303 C330.791478,30.2375834 330.58293,30.0913366 330.374357,29.9450898 C318.208565,21.3830975 305.048339,14.3492546 291.186375,9 L288.203513,50.394212 L287.931769,54.1839125 L284.980506,95.2347624 L284.07048,107.862858 L272.107434,274.266319 L272,275.728787 Z" id="路径" fill="#E6E6E6"></path>
            <path d="M126.251419,25.7312387 C125.83428,25.9982828 125.41714,26.265327 125,26.5450875 L125,281 L126.251419,280.885553 L184,275.729057 L183.892555,274.266641 L171.928227,107.872743 L171.018104,95.2453706 L168.066524,54.196872 L167.794751,50.4073885 L164.666202,7 C151.174581,11.7046526 138.280811,17.9917188 126.251419,25.7312387 L126.251419,25.7312387 Z" id="路径" fill="#E6E6E6"></path>
            <path d="M125.517774,26.8132109 C124.674288,27.359587 123.830802,27.9186695 123,28.4841052 L123,284.537537 C123,290.935188 126.786175,296.297329 131.847092,297.66327 C132.674069,297.887585 133.527136,298 134.383892,298 L322.614486,298 C323.469184,298 324.320211,297.887995 325.144945,297.66327 C327.026151,297.14042 328.731086,296.117407 330.079021,294.702674 C332.64961,291.950206 334.054553,288.306385 334,284.537537 L334,32.9377056 C332.95829,32.1689671 331.91186,31.4065819 330.852746,30.6632563 C330.643485,30.5171325 330.434199,30.3710086 330.224887,30.2248848 L330.224887,284.537537 C330.226314,285.361659 330.12836,286.182936 329.933155,286.983523 C329.038933,290.763683 326.089903,293.533683 322.614486,293.533683 L134.383892,293.533683 C130.185487,293.533683 126.773491,289.499394 126.773491,284.537537 L126.773491,26 C126.354919,26.2668348 125.936347,26.5336697 125.517774,26.8132109 Z" id="路径" fill="#E6E6E6"></path>
            <rect id="矩形" fill="#E6E6E6" x="124" y="50" width="208" height="4"></rect>
            <path d="M269,1.87843767 C267.671141,1.56652864 266.342282,1.27371609 265,1 L265,104 L269,104 L269,1.87843767 Z" id="路径" fill="#E6E6E6"></path>
            <path d="M192,0 C190.66443,0.234891955 189.328859,0.47613234 188,0.73641802 L188,104 L192,104 L192,0 Z" id="路径" fill="#E6E6E6"></path>
            <path d="M84,290.993661 C84,293.161153 84.415826,295.308656 85.2275326,297.319537 C85.5392854,298.099333 85.911423,298.853782 86.340579,299.576062 C86.8948689,300.518082 87.5380476,301.405271 88.2613791,302.225578 C91.4938595,305.896709 96.1573529,308.001053 101.058233,308 L349.941769,308 C359.36277,308 367,300.38884 367,291 C367,281.611159 359.36277,274 349.941769,274 L101.058233,274 C91.643554,274.009232 84.0127759,281.611125 84,290.993661 Z" id="路径" fill="#E6E6E6"></path>
            <rect id="矩形" fill="#E6E6E6" transform="translate(228.000000, 102.000000) rotate(-180.000000) translate(-228.000000, -102.000000) " x="125" y="96" width="206" height="12"></rect>
            <path d="M219,91 L236,91 L236,91 C236,92.8565154 235.296367,94.6369928 234.043893,95.9497475 C232.791419,97.2625021 231.092699,98 229.321433,98 L225.67858,98 C221.990109,98 219,94.8659932 219,91 L219,91 L219,91 Z" id="路径" fill="#E6E6E6" transform="translate(227.500000, 94.500000) rotate(-180.000000) translate(-227.500000, -94.500000) "></path>
            <path d="M0,301 C5.51463527,307.400099 11.4793302,313.414761 17.8504643,319 L451.149536,319 C457.52067,313.414761 463.485365,307.400099 469,301 L0,301 Z" id="路径" fill="#3F3D56"></path>
            <path d="M118,238.219423 L118,304 L163,304 L163,238.219423 C163.00156,237.248203 162.384179,236.389594 161.478071,236.102849 C161.270029,236.032476 161.052061,235.997802 160.832977,236.000108 L120.173277,236.000108 C119.597631,235.999081 119.045149,236.232316 118.637517,236.64856 C118.229886,237.064804 118.000542,237.629915 118,238.219423 L118,238.219423 Z M135.561583,260.821876 C135.586033,258.122752 137.72957,255.947866 140.36534,255.947866 C143.00111,255.947866 145.144648,258.122752 145.169097,260.821876 L145.169097,268.454373 C145.155598,271.161495 143.008842,273.348749 140.36534,273.348749 C137.721838,273.348749 135.575082,271.161495 135.561583,268.454373 L135.561583,260.821876 Z" id="形状" fill="#2F2E41"></path>
            <path d="M117,303 L117,308.852071 C117.002145,309.482923 117.549717,309.994746 118.228109,310 L161.771891,310 C162.451227,309.996838 163,309.48379 163,308.852071 L163,303 L117,303 Z" id="路径" fill="#3F3D56"></path>
            <path d="M45,140.694032 L45,259.299635 C45.002505,262.446826 47.5646057,264.997506 50.7258883,265 L227.274112,265 C230.4354,264.99752 232.997509,262.446832 233,259.299635 L233,140.694032 C232.992478,137.54994 230.432287,135.003993 227.274112,135 L50.7258883,135 C47.5677185,135.004007 45.0075358,137.549946 45,140.694032 L45,140.694032 Z" id="路径" fill="#3F3D56"></path>
            <path d="M49,142.058726 L49,257.94762 C49.0029217,259.632196 50.3734085,260.99709 52.0648873,261 L225.935113,261 C227.626597,260.997104 228.997092,259.632202 229,257.94762 L229,142.058726 C229,140.37198 227.628766,139.00366 225.935113,139 L52.0648873,139 C50.3712394,139.003674 49,140.371985 49,142.058726 L49,142.058726 Z" id="路径" fill="#5E5FD4"></path>
            <path d="M85.426999,312.257501 C85.7847133,312.729449 86.3281478,313.003026 86.9018506,313 L190.103323,313 C190.674902,312.999226 191.215758,312.72763 191.57582,312.260546 C191.935883,311.793463 192.076848,311.180579 191.959601,310.591953 L190.357607,302.585282 C190.222696,301.92188 189.777624,301.375525 189.175183,301.13378 C188.960516,301.045153 188.731929,300.999772 188.501329,301 L88.4974875,301 C88.2668866,300.999769 88.0382991,301.04515 87.8236329,301.13378 C87.2211756,301.3755 86.7760939,301.921866 86.6412087,302.585282 L85.0392147,310.591953 C84.9237744,311.180248 85.0661988,311.791966 85.426999,312.257501 Z" id="路径" fill="#2F2E41"></path>
            <rect id="矩形" fill="#3F3D56" transform="translate(186.500000, 303.000000) rotate(-180.000000) translate(-186.500000, -303.000000) " x="185" y="302" width="3" height="2" rx="0.48819"></rect>
            <rect id="矩形" fill="#3F3D56" transform="translate(179.500000, 303.000000) rotate(-180.000000) translate(-179.500000, -303.000000) " x="178" y="302" width="3" height="2" rx="0.48819"></rect>
            <rect id="矩形" fill="#3F3D56" transform="translate(173.500000, 303.000000) rotate(-180.000000) translate(-173.500000, -303.000000) " x="172" y="302" width="3" height="2" rx="0.48819"></rect>
            <rect id="矩形" fill="#3F3D56" transform="translate(166.500000, 303.000000) rotate(-180.000000) translate(-166.500000, -303.000000) " x="165" y="302" width="3" height="2" rx="0.48819"></rect>
            <rect id="矩形" fill="#3F3D56" transform="translate(160.500000, 303.000000) rotate(-180.000000) translate(-160.500000, -303.000000) " x="159" y="302" width="3" height="2" rx="0.48819"></rect>
            <rect id="矩形" fill="#3F3D56" transform="translate(154.500000, 303.000000) rotate(-180.000000) translate(-154.500000, -303.000000) " x="153" y="302" width="3" height="2" rx="0.48819"></rect>
            <rect id="矩形" fill="#3F3D56" transform="translate(147.500000, 303.000000) rotate(-180.000000) translate(-147.500000, -303.000000) " x="146" y="302" width="3" height="2" rx="0.48819"></rect>
            <rect id="矩形" fill="#3F3D56" transform="translate(141.500000, 303.000000) rotate(-180.000000) translate(-141.500000, -303.000000) " x="140" y="302" width="3" height="2" rx="0.48819"></rect>
            <rect id="矩形" fill="#3F3D56" transform="translate(135.500000, 303.000000) rotate(-180.000000) translate(-135.500000, -303.000000) " x="134" y="302" width="3" height="2" rx="0.48819"></rect>
            <rect id="矩形" fill="#3F3D56" transform="translate(128.500000, 303.000000) rotate(-180.000000) translate(-128.500000, -303.000000) " x="127" y="302" width="3" height="2" rx="0.48819"></rect>
            <rect id="矩形" fill="#3F3D56" transform="translate(122.500000, 303.000000) rotate(-180.000000) translate(-122.500000, -303.000000) " x="121" y="302" width="3" height="2" rx="0.48819"></rect>
            <rect id="矩形" fill="#3F3D56" transform="translate(116.500000, 303.000000) rotate(-180.000000) translate(-116.500000, -303.000000) " x="115" y="302" width="3" height="2" rx="0.48819"></rect>
            <rect id="矩形" fill="#3F3D56" transform="translate(109.500000, 303.000000) rotate(-180.000000) translate(-109.500000, -303.000000) " x="108" y="302" width="3" height="2" rx="0.48819"></rect>
            <rect id="矩形" fill="#3F3D56" transform="translate(103.500000, 303.000000) rotate(-180.000000) translate(-103.500000, -303.000000) " x="102" y="302" width="3" height="2" rx="0.48819"></rect>
            <rect id="矩形" fill="#3F3D56" transform="translate(97.500000, 303.000000) rotate(-180.000000) translate(-97.500000, -303.000000) " x="96" y="302" width="3" height="2" rx="0.48819"></rect>
            <rect id="矩形" fill="#3F3D56" transform="translate(90.500000, 303.000000) rotate(-180.000000) translate(-90.500000, -303.000000) " x="89" y="302" width="3" height="2" rx="0.48819"></rect>
            <rect id="矩形" fill="#3F3D56" transform="translate(186.500000, 306.000000) rotate(-180.000000) translate(-186.500000, -306.000000) " x="185" y="305" width="3" height="2" rx="0.48819"></rect>
            <rect id="矩形" fill="#3F3D56" transform="translate(179.500000, 306.000000) rotate(-180.000000) translate(-179.500000, -306.000000) " x="178" y="305" width="3" height="2" rx="0.48819"></rect>
            <rect id="矩形" fill="#3F3D56" transform="translate(173.500000, 306.000000) rotate(-180.000000) translate(-173.500000, -306.000000) " x="172" y="305" width="3" height="2" rx="0.48819"></rect>
            <rect id="矩形" fill="#3F3D56" transform="translate(167.500000, 306.000000) rotate(-180.000000) translate(-167.500000, -306.000000) " x="166" y="305" width="3" height="2" rx="0.48819"></rect>
            <rect id="矩形" fill="#3F3D56" transform="translate(160.500000, 306.000000) rotate(-180.000000) translate(-160.500000, -306.000000) " x="159" y="305" width="3" height="2" rx="0.48819"></rect>
            <rect id="矩形" fill="#3F3D56" transform="translate(154.500000, 306.000000) rotate(-180.000000) translate(-154.500000, -306.000000) " x="153" y="305" width="3" height="2" rx="0.48819"></rect>
            <rect id="矩形" fill="#3F3D56" transform="translate(147.500000, 306.000000) rotate(-180.000000) translate(-147.500000, -306.000000) " x="146" y="305" width="3" height="2" rx="0.48819"></rect>
            <rect id="矩形" fill="#3F3D56" transform="translate(141.500000, 306.000000) rotate(-180.000000) translate(-141.500000, -306.000000) " x="140" y="305" width="3" height="2" rx="0.48819"></rect>
            <rect id="矩形" fill="#3F3D56" transform="translate(135.500000, 306.000000) rotate(-180.000000) translate(-135.500000, -306.000000) " x="134" y="305" width="3" height="2" rx="0.48819"></rect>
            <rect id="矩形" fill="#3F3D56" transform="translate(128.500000, 306.000000) rotate(-180.000000) translate(-128.500000, -306.000000) " x="127" y="305" width="3" height="2" rx="0.48819"></rect>
            <rect id="矩形" fill="#3F3D56" transform="translate(122.500000, 306.000000) rotate(-180.000000) translate(-122.500000, -306.000000) " x="121" y="305" width="3" height="2" rx="0.48819"></rect>
            <rect id="矩形" fill="#3F3D56" transform="translate(116.500000, 306.000000) rotate(-180.000000) translate(-116.500000, -306.000000) " x="115" y="305" width="3" height="2" rx="0.48819"></rect>
            <rect id="矩形" fill="#3F3D56" transform="translate(109.500000, 306.000000) rotate(-180.000000) translate(-109.500000, -306.000000) " x="108" y="305" width="3" height="2" rx="0.48819"></rect>
            <rect id="矩形" fill="#3F3D56" transform="translate(103.500000, 306.000000) rotate(-180.000000) translate(-103.500000, -306.000000) " x="102" y="305" width="3" height="2" rx="0.48819"></rect>
            <rect id="矩形" fill="#3F3D56" transform="translate(97.500000, 306.000000) rotate(-180.000000) translate(-97.500000, -306.000000) " x="96" y="305" width="3" height="2" rx="0.48819"></rect>
            <rect id="矩形" fill="#3F3D56" transform="translate(90.500000, 306.000000) rotate(-180.000000) translate(-90.500000, -306.000000) " x="89" y="305" width="3" height="2" rx="0.48819"></rect>
            <rect id="矩形" fill="#3F3D56" transform="translate(145.000000, 310.000000) rotate(-180.000000) translate(-145.000000, -310.000000) " x="132" y="309" width="26" height="2" rx="0.48819"></rect>
            <path d="M61.6292226,156 L223.370777,156 C223.720501,155.988055 224,155.543857 224,155 C224,154.456143 223.720501,154.011945 223.370777,154 L61.6292226,154 C61.2794991,154.011945 61,154.456143 61,155 C61,155.543857 61.2794991,155.988055 61.6292226,156 Z" id="路径" fill="#3F3D56"></path>
            <circle id="椭圆形" fill="#3F3D56" cx="213.5" cy="147.5" r="3.5"></circle>
            <circle id="椭圆形" fill="#3F3D56" cx="199.5" cy="147.5" r="3.5"></circle>
            <circle id="椭圆形" fill="#3F3D56" cx="186.5" cy="147.5" r="3.5"></circle>
            <path d="M69,145.004525 C68.9991069,145.267357 69.0739349,145.519915 69.2080286,145.706614 C69.3421224,145.893312 69.5244918,145.998851 69.7149991,146 L79.2918695,146 C79.6855998,145.987341 80,145.543355 80,145 C80,144.456645 79.6855998,144.012659 79.2918695,144 L69.7149991,144 C69.3170133,144.006659 68.9976036,144.455416 69,145.004525 L69,145.004525 Z" id="路径" fill="#3F3D56"></path>
            <path d="M69,148.004525 C68.9990965,148.267361 69.0739154,148.519927 69.208001,148.706629 C69.3420867,148.893331 69.5244482,148.998865 69.714944,149 L79.2910769,149 C79.6851136,148.987981 80,148.543805 80,148 C80,147.456195 79.6851136,147.012019 79.2910769,147 L69.714944,147 C69.3169888,147.006659 68.9976037,147.455416 69,148.004525 Z" id="路径" fill="#3F3D56"></path>
            <path d="M69,149.995475 C68.9976036,150.544584 69.3170133,150.993341 69.7149991,151 L79.2918695,151 C79.6855998,150.987341 80,150.543355 80,150 C80,149.456645 79.6855998,149.012659 79.2918695,149 L69.7149991,149 C69.5244897,149.00114 69.3421161,149.106675 69.2080209,149.293376 C69.0739257,149.480077 68.9990999,149.732641 69,149.995475 Z" id="路径" fill="#3F3D56"></path>
            <rect id="矩形" fill="#E6E6E6" x="67" y="171" width="7" height="3" rx="1.5"></rect>
            <rect id="矩形" fill="#E6E6E6" x="104" y="171" width="7" height="3" rx="1.5"></rect>
            <rect id="矩形" fill="#E6E6E6" x="115" y="171" width="7" height="3" rx="1.5"></rect>
            <rect id="矩形" fill="#E6E6E6" x="77" y="171" width="25" height="3" rx="1.5"></rect>
            <rect id="矩形" fill="#E6E6E6" x="128" y="171" width="25" height="3" rx="1.5"></rect>
            <rect id="矩形" fill="#E6E6E6" x="76" y="179" width="7" height="3" rx="1.5"></rect>
            <rect id="矩形" fill="#E6E6E6" x="115" y="179" width="7" height="3" rx="1.5"></rect>
            <rect id="矩形" fill="#E6E6E6" x="126" y="179" width="7" height="3" rx="1.5"></rect>
            <rect id="矩形" fill="#E6E6E6" x="86" y="179" width="25" height="3" rx="1.5"></rect>
            <rect id="矩形" fill="#E6E6E6" x="138" y="179" width="25" height="3" rx="1.5"></rect>
            <rect id="矩形" fill="#E6E6E6" x="87" y="187" width="7" height="3" rx="1.5"></rect>
            <rect id="矩形" fill="#E6E6E6" x="125" y="187" width="7" height="3" rx="1.5"></rect>
            <rect id="矩形" fill="#E6E6E6" x="136" y="187" width="7" height="3" rx="1.5"></rect>
            <rect id="矩形" fill="#E6E6E6" x="97" y="187" width="25" height="3" rx="1.5"></rect>
            <rect id="矩形" fill="#E6E6E6" x="147" y="187" width="25" height="3" rx="1.5"></rect>
            <rect id="矩形" fill="#E6E6E6" x="97" y="196" width="7" height="3" rx="1.5"></rect>
            <rect id="矩形" fill="#E6E6E6" x="135" y="196" width="7" height="3" rx="1.5"></rect>
            <rect id="矩形" fill="#E6E6E6" x="146" y="196" width="7" height="3" rx="1.5"></rect>
            <rect id="矩形" fill="#E6E6E6" x="107" y="196" width="25" height="3" rx="1.5"></rect>
            <rect id="矩形" fill="#E6E6E6" x="104" y="228" width="7" height="3" rx="1.5"></rect>
            <rect id="矩形" fill="#E6E6E6" x="115" y="228" width="7" height="3" rx="1.5"></rect>
            <rect id="矩形" fill="#E6E6E6" x="128" y="228" width="25" height="3" rx="1.5"></rect>
            <rect id="矩形" fill="#E6E6E6" x="67" y="228" width="7" height="3" rx="1.5"></rect>
            <rect id="矩形" fill="#E6E6E6" x="77" y="228" width="25" height="3" rx="1.5"></rect>
            <rect id="矩形" fill="#E6E6E6" x="76" y="220" width="7" height="3" rx="1.5"></rect>
            <rect id="矩形" fill="#E6E6E6" x="115" y="220" width="7" height="3" rx="1.5"></rect>
            <rect id="矩形" fill="#E6E6E6" x="126" y="220" width="7" height="3" rx="1.5"></rect>
            <rect id="矩形" fill="#E6E6E6" x="86" y="220" width="25" height="3" rx="1.5"></rect>
            <rect id="矩形" fill="#E6E6E6" x="87" y="212" width="7" height="3" rx="1.5"></rect>
            <rect id="矩形" fill="#E6E6E6" x="125" y="212" width="7" height="3" rx="1.5"></rect>
            <rect id="矩形" fill="#E6E6E6" x="136" y="212" width="7" height="3" rx="1.5"></rect>
            <rect id="矩形" fill="#E6E6E6" x="97" y="212" width="25" height="3" rx="1.5"></rect>
            <rect id="矩形" fill="#E6E6E6" x="97" y="204" width="7" height="3" rx="1.5"></rect>
            <rect id="矩形" fill="#E6E6E6" x="135" y="204" width="7" height="3" rx="1.5"></rect>
            <rect id="矩形" fill="#E6E6E6" x="146" y="204" width="7" height="3" rx="1.5"></rect>
            <rect id="矩形" fill="#E6E6E6" x="107" y="204" width="25" height="3" rx="1.5"></rect>
            <path d="M60,347.428296 C60.3863023,347.625258 60.7789375,347.822221 61.1652398,348.01283 C71.1711036,353.032205 79.1757565,355.884989 90.1252492,359.010979 C91.0498417,348.654548 91.94277,330.451373 92.8103671,319.167311 C93.0383488,316.238283 93.2663305,313.779425 93.4879794,312.044882 C93.5438881,311.122651 93.7315682,310.213263 94.045268,309.344585 L94.007271,312.044882 L93.9122786,319.167311 L93.3613229,359.900488 C106.981648,363.516092 120.973012,365.539397 135.056644,365.930091 C135.791251,365.949152 136.513193,365.96186 137.209804,365.974535 C137.456784,365.980889 137.697432,365.987242 137.938079,365.987242 C138.729682,365.993596 139.514953,366 140.306556,366 C155.148104,366.010967 169.935989,364.21241 184.345022,360.643832 C184.034713,350.395413 183.724405,332.395555 183.426762,319.167279 C183.363434,316.581348 183.306438,314.173319 183.24311,312.04485 C183.122786,307.495645 182.99613,304.217199 182.875806,303.117988 C182.982467,303.312743 183.06539,303.519663 183.122786,303.734291 C183.709307,306.474009 184.1092,309.250618 184.31969,312.04485 C184.541339,314.173319 184.762988,316.581348 184.984637,319.167279 C186.162543,332.910199 187.391111,351.596251 188.657676,359.519238 C196.196539,357.454329 203.59402,354.901164 210.803565,351.875811 C214.60326,350.287401 218.335405,348.574037 222,346.735717 C221.303389,342.161097 220.575114,337.033711 219.827841,331.715715 C219.245221,327.592204 218.643603,323.354327 218.029319,319.167279 C217.079395,312.699275 202.963528,267.499489 202.070631,265.784007 C201.304359,264.316316 200.576053,262.931223 199.885806,261.654142 C198.21394,258.553566 196.795388,256.082 195.744139,254.519005 C191.349105,247.830408 184.806197,242.851051 177.201627,240.407574 L177.011642,240.356745 L176.878653,240.413927 L163.928025,236.423842 L162.03451,235.839308 L160.761613,235.445382 L156.277972,232.020771 L153.839835,230.159155 L151.553685,228.411904 L147.08271,225 L119.401932,226.709129 L114.012697,239.727734 L101.942333,244.156221 L101.733381,244.060916 L101.549729,243.984672 L101.359744,244.035501 C93.7563515,246.481252 87.2141303,251.460087 82.8172323,258.146933 C82.2219848,259.042796 81.5,260.224573 80.6830702,261.654142 C79.9864595,262.867687 79.2265205,264.25278 78.4032532,265.784007 C77.2316805,267.963305 75.9524499,270.422163 74.5972253,273.084338 C74.2995825,273.668872 73.9956069,274.266114 73.6916313,274.86971 C73.1280099,275.987921 72.5559446,277.129447 71.9754357,278.29429 C70.6265439,280.994586 69.2333224,283.815602 67.8401009,286.681093 C66.6305313,289.165365 65.408296,294.273691 64.2050592,300.773463 C63.2108057,306.174056 62.222885,312.540402 61.2666284,319.167247 C60.012729,327.757367 61.3489551,338.043908 60.2153794,345.947834 C60.145655,346.449835 60.0696611,346.939065 60,347.428296 Z" id="路径" fill="#3F3D56"></path>
            <polygon id="路径" fill="#000000" opacity="0.2" points="193 301 187.689375 280 183 298.120761"></polygon>
            <path d="M50,287.710861 C51.9290147,314.137462 49.9302001,325.773243 60.5778537,347.561938 C70.2657086,352.277232 80.3567888,356.124764 90.7313995,359.058897 C91.8101248,359.361781 92.8909653,359.656251 93.9739209,359.942308 C107.621384,363.533122 121.640626,365.542555 135.752319,365.930571 C136.48839,365.949501 137.21177,365.962121 137.909769,365.97471 C138.157241,365.98102 138.398368,365.98733 138.639495,365.98733 C139.432676,365.99364 140.21951,366 141.012691,366 C155.88381,366.010891 170.70116,364.224667 185.138902,360.680555 C186.585663,360.327191 188.026079,359.954897 189.460149,359.563672 C197.014034,357.51292 204.426254,354.97726 211.650164,351.97265 C215.45743,350.395131 219.197011,348.693513 222.868907,346.867798 C223.70016,346.451333 224.531413,346.034868 225.349976,345.605782 C229.557004,338.248233 231.949236,329.300545 232,318.548174 C229.087442,300.021821 56.4342793,271.733747 50,287.710861 Z" id="路径" fill="#2F2E41"></path>
            <path d="M49.3371397,291.67468 C49.238614,290.059038 49.1284635,288.390109 49,286.652186 C55.4342793,270.874071 228.087442,298.80981 231,317.105444 C230.991979,318.78286 230.918937,320.41071 230.796127,322 C223.742793,303.942227 59.7199789,277.391105 49.3371397,291.67468 Z" id="路径" fill="#000000" opacity="0.2"></path>
            <path d="M9.66832731,300.234697 C10.2380351,301.914595 11.8119786,303.031129 13.565558,302.999338 L30.2634227,302.564158 C32.0318151,302.529279 33.5663488,301.319179 34.0331683,299.591418 L36.3961037,274.002223 C37.234447,274.386853 38.147103,274.576773 39.0672759,274.558081 C42.4277493,274.470378 45.0824059,271.641534 44.9980437,268.238163 C44.9136815,264.834792 42.1222152,262.14441 38.7616296,262.227581 C38.3938404,262.226381 38.0269791,262.26502 37.6673044,262.34284 C36.8763288,261.476174 35.7604344,260.988563 34.5951777,261.000204 L8.91002279,261.672132 C8.69695547,261.680098 8.48497089,261.706753 8.27644886,261.751796 C7.13682063,261.966948 6.14481229,262.670861 5.55600056,263.682183 C4.96718884,264.693505 4.83914967,265.913345 5.20487053,267.02743 L9.66832731,300.234697 Z M36.8806741,272.264744 L38.5620883,266.166867 C38.7533615,265.462466 38.7577902,264.719432 38.5749276,264.012745 C38.656514,264.012528 38.7284819,263.973372 38.8100683,263.973168 C41.2104846,263.922899 43.1984125,265.849308 43.2546221,268.280179 C43.3108317,270.71105 41.4141238,272.729589 39.0140153,272.793173 C38.2686851,272.81677 37.5311112,272.634073 36.8806741,272.264744 L36.8806741,272.264744 Z" id="形状" fill="#5E5FD4"></path>
            <path d="M8,261.777589 C8.55754602,265.052656 14.8260117,267.355017 22.3633701,266.954827 C29.2944588,266.626761 34.9617216,264.126489 36,261.163225 C35.6157419,261.04647 35.2161614,260.991744 34.8155503,261.001006 L8.64553397,261.695252 C8.42844456,261.703486 8.21245832,261.731035 8,261.777589 L8,261.777589 Z" id="路径" fill="#3F3D56"></path>
            <path d="M24.4875097,286.989366 C24.5182497,286.979985 24.5474731,286.964473 24.5739719,286.943471 L27.870172,284.34148 C27.9511292,284.277833 28,284.169187 28,284.052638 C28,283.936088 27.9512721,283.827398 27.8703554,283.763676 L24.4443102,281.05734 C24.3587612,280.989065 24.2494624,280.981208 24.1577939,281.036742 C24.0661254,281.092276 24.0060979,281.202714 24.0004376,281.326244 C23.9947773,281.449775 24.0443493,281.567517 24.1303858,281.634895 L27.1903979,284.052063 L24.2603913,286.365419 C24.1432362,286.457807 24.0986131,286.638785 24.1548744,286.793365 C24.2111356,286.947945 24.3517975,287.030837 24.4874868,286.989373 L24.4875097,286.989366 Z" id="路径" fill="#F7F8FD"></path>
            <path d="M17.7833234,286.989402 C17.8967507,286.954846 17.9814094,286.84092 17.9973226,286.701422 C18.0132358,286.561924 17.9572202,286.424758 17.855727,286.354696 L14.8103567,284.253564 L17.7538232,281.622446 C17.8361031,281.54887 17.8795153,281.428058 17.8677068,281.305518 C17.8558984,281.182979 17.7906633,281.077329 17.696575,281.028366 C17.6024867,280.979402 17.4938395,280.994565 17.4115597,281.068141 L14.1160498,284.013993 C14.0382578,284.083377 13.994803,284.195308 14.0004978,284.311631 C14.0061926,284.427955 14.0602683,284.532971 14.1442923,284.590883 L17.5699485,286.95417 C17.6345732,286.998813 17.7110953,287.011448 17.7833234,286.989402 Z" id="路径" fill="#F7F8FD"></path>
            <path d="M23.7526348,287.990416 C23.7843454,287.982869 23.8146354,287.970677 23.8424241,287.954277 C23.9167503,287.911271 23.9700866,287.84186 23.9906798,287.761341 C24.011273,287.680822 23.997433,287.595802 23.9522096,287.525017 L18.6071368,279.148753 C18.5125267,279.002233 18.3114643,278.95616 18.1573213,279.045679 C18.0031782,279.135198 17.9539372,279.326636 18.0471595,279.473962 L23.3922323,287.85022 C23.4671263,287.967214 23.6132462,288.024054 23.7526348,287.990416 L23.7526348,287.990416 Z" id="路径" fill="#F7F8FD"></path>
            <rect id="矩形" fill="#3F3D56" x="369" y="253" width="57" height="49"></rect>
            <path d="M433.868321,184 C432.835287,190.093144 433.742513,196.355281 436.462995,201.909763 C437.469991,203.952712 438.717046,206.413785 437.490877,208.334411 C436.794036,209.306668 435.69333,209.913747 434.495608,209.986411 C433.312585,210.048777 432.128043,209.896116 431,209.535904" id="路径" fill="#CCCCCC"></path>
            <ellipse id="椭圆形" fill="#3F3D56" cx="385" cy="163.5" rx="2" ry="1.5"></ellipse>
            <ellipse id="椭圆形" fill="#3F3D56" cx="392" cy="164.5" rx="2" ry="1.5"></ellipse>
            <ellipse id="椭圆形" fill="#3F3D56" cx="399" cy="166.5" rx="2" ry="1.5"></ellipse>
            <ellipse id="椭圆形" fill="#3F3D56" cx="407" cy="164.5" rx="2" ry="1.5"></ellipse>
            <path d="M233.180767,196.181911 C242.479913,193.609454 252.837276,196.366431 260.023271,202.681573 C263.90047,206.112467 266.745876,210.548502 268.242607,215.495651 C270.077296,221.384102 270.380763,227.595622 270.572943,233.716564 C270.785438,240.484525 270.969883,247.253471 271.167763,254.02187 C271.35644,260.475359 271.378586,266.958987 271.810654,273.401804 C272.173214,278.808066 273.041625,284.420414 275.945114,289.109477 C278.636943,293.456676 282.889735,296.391908 287.695831,298.00986 C292.567248,299.649804 297.818412,300.031563 302.928537,299.998021 C308.875596,299.979222 314.812654,299.510808 320.68859,298.596814 C331.849158,296.815185 342.872874,292.270746 349.68943,282.895082 C352.827762,278.637859 354.591358,273.529547 354.745739,268.249328 C354.889447,262.096242 352.916674,256.136586 350.755932,250.453249 C348.653262,244.922645 346.378439,239.473657 345.047439,233.691246 C343.811245,228.279772 343.222228,222.741498 343.292681,217.192027 C343.4067,206.089597 346.076964,195.161441 351.097724,185.249598 C353.638801,180.158847 356.86231,175.435811 360.679772,171.210127 C364.616576,166.941364 369.491369,163.417402 375.288402,162.262172 C378.117441,161.678155 381.047128,161.795554 383.819974,162.604048 C385.002888,162.957022 385.508338,161.116131 384.328967,160.764232 C378.586201,159.050717 372.347355,160.353605 367.255739,163.327671 C362.249383,166.251951 358.293025,170.638849 354.935437,175.290242 C341.865217,193.766191 338.002094,217.188038 344.450309,238.860843 C347.857569,249.983666 355.268307,261.561712 352.084634,273.599126 C349.297965,284.135478 339.64473,291.295628 329.672436,294.530182 C323.622496,296.492503 317.279613,297.322654 310.952648,297.752074 C305.60598,298.114963 300.186479,298.345783 294.855168,297.661064 C289.958343,297.032153 284.921511,295.540464 281.124829,292.264914 C276.963182,288.674492 275.06104,283.515127 274.233168,278.220304 C273.296479,272.229567 273.434149,266.052009 273.25742,260.007143 L272.654175,239.373642 C272.313469,227.720034 272.60712,214.804604 264.998559,205.148437 C258.834556,197.524097 249.487366,193.157462 239.663445,193.312879 C237.299198,193.367027 234.950779,193.712725 232.6718,194.342082 C232.179204,194.495933 231.897475,195.011018 232.034674,195.506938 C232.171872,196.002858 232.678672,196.301314 233.180793,196.181892 L233.180767,196.181911 Z" id="路径" fill="#3F3D56"></path>
            <path d="M98.2993912,184.424286 C101.104933,204.468169 119.551801,218.440472 139.516675,215.643697 C159.481549,212.846922 173.41545,194.338567 170.650282,174.289028 L170.577955,173.768671 C167.363417,154.005491 148.955484,140.484702 129.223767,143.393658 C109.492051,146.302614 95.7317013,164.565824 98.3105702,184.422719 L98.2993912,184.424286 Z" id="路径" fill="#FFE9E9"></path>
            <path d="M131.021942,215.018926 C129.119816,211.211537 127.165219,207.123562 127.681936,202.903894 C128.198654,198.684227 132.347626,194.638824 136.4392,195.878738 C138.885898,196.620188 140.741284,199.012459 143.296638,199.126688 C146.812608,199.283857 148.814659,195.279095 149.897663,191.95136 L154.308442,178.398368 C162.816104,185.040064 152.041459,178.07709 162.580192,175.645764 C166.71467,174.691955 170.888603,172.845133 173.304072,169.376931 C175.71954,165.908728 175.686854,160.54153 172.349015,157.936125 C170.712389,156.65863 168.538143,156.178417 166.97362,154.814628 C164.980818,153.077526 164.368234,150.248341 165.465723,147.850488 C166.563212,145.452635 169.111694,144.052165 171.738903,144.403181 L160.513393,143.046911 L163.836374,137.027071 C161.433808,138.922186 158.081942,139.187119 155.061231,138.657005 C152.04052,138.126892 149.193172,136.901158 146.237086,136.087238 C132.045912,132.179921 115.591531,139.110516 108.548454,151.961696 C102.889076,150.104682 96.6635924,151.913481 92.9023246,156.50764 C89.9113092,160.30617 89.1114613,165.364631 89.0113245,170.186792 C88.8248958,179.694783 90.942677,189.107842 95.1859667,197.631684 C96.5085005,200.280702 98.0717139,202.879281 100.319621,204.816968 C102.567528,206.754656 127.971547,217.488747 130.903426,216.982675" id="路径" fill="#2F2E41"></path>
            <path d="M395,190 C395.004915,191.645998 394.795347,193.285534 394.376582,194.876585 L394.376582,194.882927 C394.370286,194.914634 394.357694,194.946341 394.351397,194.978049 C393.079552,199.689756 390.044753,203 386.499956,203 C382.974048,203 379.951842,199.715122 378.661108,195.041463 C378.57296,194.718049 378.497405,194.394634 378.428146,194.058537 C378.339998,193.68439 378.270739,193.297561 378.214073,192.898049 C378.163703,192.580976 378.125925,192.257561 378.094444,191.927805 C378.05037,191.47122 378.018889,191.014634 378.012593,190.539024 L378.012593,190.532683 C378,190.355122 378,190.177561 378,190 L378,189.841463 L378.006296,189.835122 C378.007094,189.031398 378.059673,188.228573 378.163703,187.431707 C378.207777,187.09561 378.258147,186.772195 378.321109,186.44878 C378.396665,186.05561 378.478516,185.66878 378.579256,185.288293 C378.661108,184.952195 378.755552,184.62878 378.856292,184.305366 C378.99481,183.874146 379.14592,183.45561 379.315919,183.056098 C379.422956,182.796098 379.536288,182.542439 379.649621,182.295122 C381.198502,179.086341 383.691823,177 386.499956,177 C390.384751,177 393.658808,180.98878 394.672507,186.429756 C394.685099,186.512195 394.703988,186.594634 394.710284,186.677073 L394.710284,186.683415 C394.90424,187.778112 395.001164,188.888011 395,190 Z" id="路径" fill="#E6E6E6"></path>
            <g id="编组" transform="translate(377.000000, 182.000000)" fill="#5E5FD4">
                <path d="M1.83,0.366666667 C1.81849745,0.681634695 1.54261918,0.946366372 1.17,1 C1.34,0.658333333 1.52,0.325 1.7,0 C1.78336135,0.109787154 1.82837706,0.236754524 1.83,0.366666667 Z" id="路径"></path>
                <rect id="矩形" x="4" y="0" width="7" height="1" rx="0.5"></rect>
                <path d="M1,2.49677443 C0.999646838,2.77455088 0.775995958,2.99964456 0.5,3 L0,3 C0.0833333333,2.65806468 0.179487179,2.32903257 0.282051282,2 L0.5,2 C0.773800644,1.99962833 0.996836953,2.2212256 1,2.49677443 L1,2.49677443 Z" id="路径"></path>
                <rect id="矩形" x="3" y="2" width="2" height="1" rx="0.5"></rect>
                <rect id="矩形" x="6" y="2" width="7" height="1" rx="0.5"></rect>
                <rect id="矩形" x="3" y="4" width="2" height="1" rx="0.5"></rect>
                <rect id="矩形" x="5" y="4" width="2" height="1" rx="0.5"></rect>
                <path d="M2,4.49678585 C1.9994543,4.77454717 1.67340188,4.9996233 1.27102804,5 L0,5 C0.0654205607,4.65807244 0.140186916,4.3290478 0.23364486,4.00002317 L1.27102804,4.00002317 C1.46330719,3.99874415 1.64838251,4.05046355 1.78522508,4.14371581 C1.92206766,4.23696808 1.99937175,4.36404883 2,4.49678585 Z" id="路径"></path>
                <rect id="矩形" x="9" y="4" width="7" height="1" rx="0.5"></rect>
            </g>
            <path d="M379,190.503214 C378.999517,190.635953 378.939362,190.763037 378.832872,190.85629 C378.726383,190.949543 378.582357,191.001261 378.432727,190.999977 L377.407273,190.999977 C377.261753,191.00053 377.12141,190.952115 377.014545,190.864496 L377.014545,190.858045 C377,190.677404 377,190.496763 377,190.316122 L377,190.154836 L377.007273,190.148384 C377.112732,190.053279 377.256886,189.999803 377.407273,190 L378.432727,190 C378.745857,190.000356 378.999599,190.225444 379,190.503214 L379,190.503214 Z" id="路径" fill="#CCCCCC"></path>
            <rect id="矩形" fill="#CCCCCC" x="381" y="190" width="7" height="1" rx="0.5"></rect>
            <path d="M379,192.497026 C378.999527,192.774664 378.700046,192.999645 378.330472,193 L377.16309,193 C377.094421,192.677581 377.042918,192.348713 377,192.013397 C377.038396,192.002819 377.079325,191.998425 377.120129,192.000501 L378.330429,192.000501 C378.69708,192.000111 378.995764,192.221603 379,192.497026 L379,192.497026 Z" id="路径" fill="#CCCCCC"></path>
            <rect id="矩形" fill="#CCCCCC" x="380" y="192" width="2" height="1" rx="0.5"></rect>
            <rect id="矩形" fill="#CCCCCC" x="383" y="191" width="7" height="1" rx="0.5"></rect>
            <rect id="矩形" fill="#CCCCCC" x="380" y="194" width="2" height="1" rx="0.5"></rect>
            <rect id="矩形" fill="#CCCCCC" x="382" y="194" width="2" height="1" rx="0.5"></rect>
            <path d="M378,194.496786 C377.999661,194.774547 377.796826,194.999623 377.546512,195 L377.215116,195 C377.133721,194.670975 377.063953,194.341951 377,194.000023 L377.546512,194.000023 C377.666127,193.998744 377.781261,194.050464 377.86639,194.143716 C377.951519,194.236968 377.999609,194.364049 378,194.496786 Z" id="路径" fill="#CCCCCC"></path>
            <rect id="矩形" fill="#CCCCCC" x="386" y="194" width="7" height="1" rx="0.5"></rect>
        </g>
    </g>
</svg>