<?xml version="1.0" encoding="UTF-8"?>
<svg width="16px" height="16px" viewBox="0 0 16 16" version="1.1" xmlns="http://www.w3.org/2000/svg" xmlns:xlink="http://www.w3.org/1999/xlink">
    <title>pin-fill</title>
    <g id="prompt" stroke="none" stroke-width="1" fill="none" fill-rule="evenodd">
        <g id="画板" transform="translate(-266.000000, -19.000000)" fill-rule="nonzero">
            <g id="pin-fill" transform="translate(266.000000, 19.000000)">
                <rect id="矩形" fill="#000000" opacity="0" x="0" y="0" width="16" height="16"></rect>
                <path d="M10.136381,2.04342858 C10.2686257,2.10074973 10.3888341,2.18256898 10.4906667,2.28457142 L13.4838095,5.28076191 C13.749981,5.54728387 13.8677334,5.92784446 13.7985976,6.29811658 C13.7294619,6.6683887 13.4823173,6.98081719 13.1379048,7.13333333 L12.0773333,7.60304763 L10.087619,9.59504763 L9.92990477,11.7862857 C9.89771598,12.2324738 9.60815936,12.6188599 9.1889521,12.7750175 C8.76974485,12.931175 8.29796882,12.8283905 7.98171428,12.512 L6.04952381,10.5779048 L2.75695237,13.8857143 L1.94704762,13.0792381 L5.24152381,9.76952381 L3.24266667,7.76914286 C2.92695712,7.45313647 2.82429259,6.98215808 2.97984277,6.56342583 C3.13539295,6.14469359 3.52064388,5.85496548 3.96609523,5.82171428 L6.21980953,5.65333333 L8.17409523,3.69676191 L8.63314286,2.63771428 C8.75364718,2.35953952 8.9797368,2.14063987 9.26165947,2.02918539 C9.54358214,1.91773092 9.85823643,1.92285447 10.136381,2.04342858 Z" id="路径" fill="#5E5FD4"></path>
            </g>
        </g>
    </g>
</svg>